<svg width="116" height="20" viewBox="0 0 116 20" fill="none" xmlns="http://www.w3.org/2000/svg">
<g clip-path="url(#clip0_8204_67686)">
<path d="M9.07088 1.16801C9.41462 0.351549 10.5854 0.35155 10.9291 1.16801L12.9579 5.9869C13.1029 6.3311 13.4306 6.56628 13.8067 6.59606L19.0727 7.01314C19.9649 7.08381 20.3267 8.1838 19.6469 8.75906L15.6348 12.1543C15.3482 12.3969 15.223 12.7774 15.3106 13.14L16.5363 18.2167C16.744 19.0768 15.7969 19.7567 15.033 19.2958L10.5245 16.5752C10.2025 16.3809 9.7975 16.3809 9.47548 16.5752L4.96699 19.2958C4.20311 19.7567 3.25596 19.0768 3.46363 18.2167L4.68942 13.14C4.77698 12.7774 4.65182 12.3969 4.36526 12.1543L0.353062 8.75906C-0.326718 8.1838 0.0350679 7.08381 0.927291 7.01314L6.19336 6.59606C6.5695 6.56628 6.89716 6.3311 7.04207 5.9869L9.07088 1.16801Z" fill="#F7A81B"/>
<path d="M33.0709 1.16801C33.4146 0.351549 34.5854 0.35155 34.9291 1.16801L36.9579 5.9869C37.1029 6.3311 37.4306 6.56628 37.8067 6.59606L43.0727 7.01314C43.9649 7.08381 44.3267 8.1838 43.6469 8.75906L39.6348 12.1543C39.3482 12.3969 39.223 12.7774 39.3106 13.14L40.5363 18.2167C40.744 19.0768 39.7969 19.7567 39.033 19.2958L34.5245 16.5752C34.2025 16.3809 33.7975 16.3809 33.4755 16.5752L28.967 19.2958C28.2031 19.7567 27.256 19.0768 27.4636 18.2167L28.6894 13.14C28.777 12.7774 28.6518 12.3969 28.3653 12.1543L24.3531 8.75906C23.6733 8.1838 24.0351 7.08381 24.9273 7.01314L30.1934 6.59606C30.5695 6.56628 30.8972 6.3311 31.0421 5.9869L33.0709 1.16801Z" fill="#F7A81B"/>
<path d="M57.0709 1.16801C57.4146 0.351549 58.5854 0.35155 58.9291 1.16801L60.9579 5.9869C61.1029 6.3311 61.4306 6.56628 61.8067 6.59606L67.0727 7.01314C67.9649 7.08381 68.3267 8.1838 67.6469 8.75906L63.6348 12.1543C63.3482 12.3969 63.223 12.7774 63.3106 13.14L64.5363 18.2167C64.744 19.0768 63.7969 19.7567 63.033 19.2958L58.5245 16.5752C58.2025 16.3809 57.7975 16.3809 57.4755 16.5752L52.967 19.2958C52.2031 19.7567 51.256 19.0768 51.4636 18.2167L52.6894 13.14C52.777 12.7774 52.6518 12.3969 52.3653 12.1543L48.3531 8.75906C47.6733 8.1838 48.0351 7.08381 48.9273 7.01314L54.1934 6.59606C54.5695 6.56628 54.8972 6.3311 55.0421 5.9869L57.0709 1.16801Z" fill="#F7A81B"/>
<path d="M81.0706 1.16801C81.4144 0.351549 82.5851 0.35155 82.9289 1.16801L84.9576 5.9869C85.1026 6.3311 85.4303 6.56628 85.8064 6.59606L91.0724 7.01314C91.9646 7.08381 92.3264 8.1838 91.6466 8.75906L87.6345 12.1543C87.348 12.3969 87.2228 12.7774 87.3103 13.14L88.5361 18.2167C88.7438 19.0768 87.7966 19.7567 87.0328 19.2958L82.5243 16.5752C82.2023 16.3809 81.7973 16.3809 81.4752 16.5752L76.9667 19.2958C76.2029 19.7567 75.2557 19.0768 75.4634 18.2167L76.6892 13.14C76.7767 12.7774 76.6516 12.3969 76.365 12.1543L72.3528 8.75906C71.673 8.1838 72.0348 7.08381 72.927 7.01314L78.1931 6.59606C78.5693 6.56628 78.8969 6.3311 79.0418 5.9869L81.0706 1.16801Z" fill="#F7A81B"/>
<path d="M105.071 1.16801C105.414 0.351549 106.585 0.35155 106.929 1.16801L108.958 5.9869C109.103 6.3311 109.43 6.56628 109.806 6.59606L115.072 7.01314C115.965 7.08381 116.326 8.1838 115.647 8.75906L111.635 12.1543C111.348 12.3969 111.223 12.7774 111.31 13.14L112.536 18.2167C112.744 19.0768 111.797 19.7567 111.033 19.2958L106.524 16.5752C106.202 16.3809 105.797 16.3809 105.475 16.5752L100.967 19.2958C100.203 19.7567 99.2557 19.0768 99.4634 18.2167L100.689 13.14C100.777 12.7774 100.652 12.3969 100.365 12.1543L96.3528 8.75906C95.673 8.1838 96.0348 7.08381 96.927 7.01314L102.193 6.59606C102.569 6.56628 102.897 6.3311 103.042 5.9869L105.071 1.16801Z" fill="#F7A81B"/>
</g>
<defs>
<clipPath id="clip0_8204_67686">
<rect width="116" height="18.8889" fill="white" transform="translate(0 0.555664)"/>
</clipPath>
</defs>
</svg>
